# xmcd CD database file
#
# Track frame offsets:
#	150
#	14572
#	29234
#	41347
#	61904
#	73332
#	90957
#	100964
#	116266
#	131392
#
# Disc length: 1950 seconds
#
# Revision: 1
# Processed by: cddbd v1.5.1PL0 Copyright (c) Steve Scherf et al.
# Submitted via: CDex 1.51
#
DISCID=82079c0a
DTITLE=Guadalajara - All You Can Dance
DYEAR=2002
DGENRE=New Age
TTITLE0=All I want
TTITLE1=Ska me up
TTITLE2=Sunday morning
TTITLE3=Swing it away
TTITLE4=Keep on rocking
TTITLE5=Between two worlds
TTITLE6=Mexican Chilli
TTITLE7=Remember
TTITLE8=Mondays
TTITLE9=WAMFAG
EXTD=YEAR: 2002
EXTT0=
EXTT1=
EXTT2=
EXTT3=
EXTT4=
EXTT5=
EXTT6=
EXTT7=
EXTT8=
EXTT9=
PLAYORDER=
